# xmcd
#
# Track frame offsets: 
#        150
#        17395
#        33962
#        60430
#
# Disc length: 1160 seconds
#
# Revision: 3
# Processed by: cddbd v1.5.2PL0 Copyright (c) Steve Scherf et al.
# Submitted via: ExactAudioCopy v1.0b3
#
DISCID=20048604
DTITLE=Centory feat. Trey D. - Girl You Know It's True
DYEAR=1996
DGENRE=Rap
TTITLE0=Girl You Know It's True (Radio Version)
TTITLE1=Girl You Know It's True (Regular Mix)
TTITLE2=Girl You Know It's True (70's Dance Mix)
TTITLE3=Slap Da Bass
EXTD=
EXTT0=
EXTT1=
EXTT2=
EXTT3=
PLAYORDER=
